{"title":"Mission Impossible Ghost Protocol 1080p BluRay 5.1Hindi By wall.","uid":7481927,"size":4734648260,"categoryP":"video","categoryS":"hd___movies","magnet":"?xt=urn:btih:19c57025e59364f5db3ada7d81ee7e2bb7a02d38&amp;dn=Mission+Impossible+Ghost+Protocol+1080p+BluRay+5.1Hindi+By+wall.&amp;tr=udp%3A%2F%2Ftracker.openbittorrent.com%3A80&amp;tr=udp%3A%2F%2Fopen.demonii.com%3A1337&amp;tr=udp%3A%2F%2Ftracker.coppersurfer.tk%3A6969&amp;tr=udp%3A%2F%2Fexodus.desync.com%3A6969","seeders":0,"leechers":1,"uploader":"wall.e","files":14,"time":1343460615,"description":"Format                           : Matroska\nFile size                        : 4.36 GiB\nDuration                         : 2h 7mn\nOverall bit rate                 : 4892 Kbps\n\nVideo\nID                               : 1\nFormat                           : AVC\nFormat/Info                      : Advanced Video Codec\nBit rate                         : 4268 Kbps\nWidth                            : 1920 pixels\nHeight                           : 800 pixels\nDisplay aspect ratio             : 2.40:1\nFrame rate                       : 25.000 fps\nColor space                      : YUV\nChroma subsampling               : 4:2:0\nStream size                      : 3.87 GiB (89%)\nTitle                            : 1080p BluRay By Ashish7(wall.e)\n\nAudio\nID                               : 2\nFormat                           : AC-3\nFormat/Info                      : Audio Coding 3\nBit rate                         : 448 Kbps\nChannel(s)                       : 6 channels\nChannel positions                : Front: L C R, Side: L R, LFE\nSampling rate                    : 48.0 KHz\nBit depth                        : 16 bits\nStream size                      : 409 MiB (9%)\nTitle                            : 5.1 Hindi Audio By Ashish7(wall.e)","torrent":{"xt":"urn:btih:19c57025e59364f5db3ada7d81ee7e2bb7a02d38","amp;dn":"Mission+Impossible+Ghost+Protocol+1080p+BluRay+5.1Hindi+By+wall.","amp;tr":["udp%3A%2F%2Ftracker.openbittorrent.com%3A80","udp%3A%2F%2Fopen.demonii.com%3A1337","udp%3A%2F%2Ftracker.coppersurfer.tk%3A6969","udp%3A%2F%2Fexodus.desync.com%3A6969"],"infoHash":"19c57025e59364f5db3ada7d81ee7e2bb7a02d38","infoHashBuffer":{"type":"Buffer","data":[25,197,112,37,229,147,100,245,219,58,218,125,129,238,126,43,183,160,45,56]},"announce":[],"urlList":[]}}